<?xml version="1.0" standalone="no"?>
<!DOCTYPE svg PUBLIC "-//W3C//DTD SVG 20010904//EN"
 "http://www.w3.org/TR/2001/REC-SVG-20010904/DTD/svg10.dtd">
<svg version="1.0" xmlns="http://www.w3.org/2000/svg"
 width="498.000000pt" height="500.000000pt" viewBox="0 0 498.000000 500.000000"
 preserveAspectRatio="xMidYMid meet">
<metadata>
Created by potrace 1.16, written by Peter Selinger 2001-2019
</metadata>
<g transform="translate(0.000000,500.000000) scale(0.100000,-0.100000)"
fill="#000000" stroke="none">
<path d="M0 4980 c0 -20 7 -20 913 -20 501 0 918 -4 925 -8 9 -6 11 -32 8 -98
-5 -100 25 -469 49 -602 37 -202 58 -302 82 -377 51 -164 113 -333 156 -425
86 -185 112 -297 104 -447 -6 -106 -49 -307 -81 -378 -8 -16 -17 -40 -20 -52
-4 -12 -20 -38 -36 -58 -17 -21 -30 -48 -30 -61 0 -55 -61 -114 -118 -114 -24
0 -38 -16 -44 -53 -5 -24 -3 -26 11 -15 9 7 18 15 21 18 17 18 64 40 128 61
68 22 76 22 149 10 147 -24 290 -77 360 -134 16 -13 55 -41 88 -62 33 -22 72
-49 86 -60 149 -113 187 -153 191 -202 3 -34 7 -39 43 -51 34 -11 45 -11 78 4
42 19 51 14 60 -33 6 -29 3 -35 -23 -48 -17 -9 -30 -19 -30 -24 0 -17 66 -22
96 -7 31 15 214 29 231 18 18 -12 23 -44 17 -94 -8 -60 -27 -82 -65 -74 -30 6
-44 -7 -76 -69 -39 -77 -220 -260 -311 -315 -18 -11 -63 -50 -100 -86 -37 -36
-87 -78 -112 -92 -42 -25 -53 -27 -160 -26 -100 0 -124 4 -185 28 -118 46
-246 128 -331 212 -43 43 -120 153 -129 184 -11 38 -25 50 -55 50 -34 0 -55
40 -70 130 -4 25 -16 76 -26 114 -16 61 -21 70 -51 82 -18 8 -33 20 -34 27 -2
40 -8 79 -12 84 -11 10 -29 -82 -29 -144 0 -41 -5 -67 -14 -74 -18 -15 -17
-27 1 -63 8 -15 15 -33 15 -40 0 -6 11 -24 24 -41 20 -24 27 -28 37 -18 23 23
37 14 44 -29 3 -24 11 -53 17 -66 9 -17 9 -25 0 -34 -7 -7 -12 -23 -11 -38 0
-14 3 -19 6 -12 7 17 23 15 23 -2 0 -8 9 -18 20 -21 24 -8 29 -65 6 -65 -8 0
-21 -3 -30 -6 -11 -4 -16 -1 -16 11 0 11 5 15 15 11 23 -8 18 12 -6 25 -25 13
-51 -3 -33 -21 6 -6 9 -32 6 -59 -2 -30 0 -51 7 -55 7 -5 11 1 11 14 0 13 8
24 20 27 11 3 20 12 20 19 0 8 5 14 11 14 5 0 7 -4 4 -10 -3 -5 -3 -10 2 -10
4 0 9 -14 9 -32 2 -49 -35 -75 -64 -46 -9 9 -12 5 -12 -19 0 -20 7 -37 20 -46
18 -13 24 -57 7 -57 -5 0 -6 9 -2 19 8 27 -12 36 -25 11 -6 -11 -15 -18 -21
-15 -5 4 -7 11 -4 16 4 5 0 9 -8 9 -16 0 -50 -34 -42 -42 3 -3 -1 -11 -10 -18
-13 -11 -14 -10 -10 3 4 8 2 18 -4 22 -7 4 -11 -8 -12 -32 l-1 -38 -13 29
c-12 28 -13 29 -19 8 -4 -12 -12 -22 -18 -22 -7 0 -8 -14 -5 -36 5 -31 4 -34
-9 -23 -11 9 -15 25 -12 50 2 24 0 35 -8 32 -6 -2 -15 4 -20 14 -6 13 -10 1
-14 -42 -3 -40 -1 -65 7 -75 10 -13 9 -21 -5 -40 -16 -23 -51 -42 -38 -21 4 5
-2 9 -13 8 -11 0 -17 -6 -14 -14 3 -7 -2 -13 -11 -13 -9 0 -16 7 -16 16 0 8
-4 13 -9 10 -5 -4 -12 7 -16 24 -10 47 -25 35 -25 -20 0 -27 -4 -50 -9 -50 -5
0 -9 12 -9 28 1 32 -11 76 -19 68 -3 -3 -15 0 -26 5 -19 11 -20 9 -15 -28 5
-32 2 -42 -14 -52 -17 -10 -20 -9 -25 8 -6 22 -33 18 -33 -6 0 -9 -8 -13 -22
-11 -17 2 -23 10 -23 27 0 13 -6 26 -14 29 -11 4 -13 -2 -8 -27 7 -33 -8 -42
-32 -18 -11 10 -13 7 -9 -16 3 -15 2 -27 -2 -27 -12 0 -33 48 -27 64 7 18 27
22 27 6 0 -5 5 -10 10 -10 17 0 11 24 -13 47 -26 24 -53 17 -43 -13 9 -30 8
-85 -2 -139 l-10 -50 -1 63 -1 62 -52 -5 c-80 -9 -98 -14 -98 -30 0 -14 -35
-15 -57 -2 -7 4 -24 7 -40 5 -15 -1 -38 2 -51 6 -21 7 -28 -1 -23 -27 1 -5 -3
-6 -9 -2 -5 3 -10 15 -10 26 0 13 -4 18 -12 13 -7 -5 -19 -9 -28 -10 -8 -1
-25 -6 -38 -9 -14 -5 -22 -3 -22 5 0 6 9 14 20 17 11 3 20 9 20 14 0 11 2 11
-38 0 -20 -6 -32 -6 -32 0 0 18 -16 8 -17 -11 -1 -13 4 -20 12 -18 8 2 14 -1
14 -7 1 -5 -2 -10 -6 -11 -16 -2 -48 -18 -56 -28 -6 -8 -10 -7 -14 2 -2 6 -9
10 -14 6 -5 -3 -9 1 -10 8 -1 7 -5 2 -9 -12 l-8 -25 -2 25 c-2 25 -2 25 -8 2
-4 -12 -5 -50 -2 -85 l4 -62 7 55 6 55 1 -62 c2 -51 5 -63 19 -63 14 0 14 -2
-2 -20 -10 -11 -25 -20 -33 -20 -9 0 -12 -6 -8 -16 3 -8 2 -12 -4 -9 -15 10
-12 35 5 35 8 0 15 7 15 16 0 10 -6 14 -15 10 -13 -4 -15 9 -15 86 0 100 -6
114 -13 28 -4 -50 -7 -55 -28 -55 -14 0 -23 5 -22 12 2 7 -7 17 -18 24 -20 10
-21 26 -4 71 4 9 0 15 -10 15 -11 0 -15 -12 -15 -48 0 -26 5 -51 10 -54 31
-19 -10 -79 -55 -81 -16 -1 -34 -2 -38 -3 -5 -1 -2 -10 6 -22 23 -33 -1 -98
-37 -99 -4 0 -5 29 -2 64 6 54 5 64 -10 70 -9 3 -22 1 -30 -5 -16 -13 -56 -8
-62 9 -2 8 8 12 30 13 l33 1 -29 8 c-40 12 -46 6 -46 -45 0 -24 -4 -47 -10
-50 -6 -4 -10 7 -10 24 0 17 -4 31 -10 31 -5 0 -10 -8 -10 -17 0 -15 -2 -14
-15 3 -14 19 -15 19 -21 -3 -3 -13 -10 -23 -13 -23 -16 0 -20 14 -10 33 8 15
8 22 -2 28 -22 14 -39 10 -39 -8 0 -15 2 -16 10 -3 17 27 21 3 4 -27 -27 -46
-5 -82 30 -48 22 23 29 18 23 -15 -4 -16 -2 -32 2 -35 5 -3 8 -13 6 -23 -2 -9
-4 -24 -4 -32 -1 -10 -4 -11 -12 -3 -5 5 -21 8 -35 5 l-24 -4 0 -155 0 -154
80 2 c44 1 84 -1 87 -5 4 -4 -3 -16 -14 -28 -16 -15 -36 -22 -75 -24 -29 -1
-59 -3 -65 -3 -7 -1 -13 -8 -13 -16 0 -13 283 -15 2490 -15 2483 0 2490 0
2490 20 0 20 -7 20 -919 20 l-919 0 -36 40 c-38 42 -43 55 -25 65 5 4 328 9
717 11 389 3 723 7 742 9 57 7 385 7 414 -1 l26 -6 0 480 0 480 -37 -3 c-36
-4 -39 -2 -58 40 -14 33 -26 46 -46 50 -35 8 -105 -11 -113 -30 -3 -8 -14 -15
-25 -15 -18 0 -55 -36 -63 -61 -2 -6 -28 -12 -58 -15 -30 -2 -56 -9 -58 -14
-5 -15 -65 -22 -95 -11 -19 7 -29 20 -33 41 -6 27 -15 35 -37 31 -4 -1 -33 6
-63 15 -65 19 -80 38 -88 119 -14 127 -39 195 -73 195 -7 0 -13 5 -13 10 0 13
-120 70 -147 70 -28 0 -83 20 -83 31 0 5 -17 17 -39 27 -32 16 -42 17 -62 7
-12 -7 -32 -11 -43 -9 -49 8 -82 17 -92 26 -8 5 -23 0 -42 -17 -16 -14 -35
-25 -40 -25 -6 0 -14 -10 -18 -22 -7 -25 -38 -58 -53 -58 -5 0 -35 -25 -66
-55 -60 -57 -75 -64 -93 -42 -8 9 -5 18 12 34 12 12 31 49 42 83 17 56 22 62
57 72 50 15 57 26 64 95 7 68 21 82 83 84 l45 2 -46 6 c-61 9 -75 22 -84 79
-3 26 -14 63 -24 82 -27 53 -33 86 -18 99 19 15 93 41 147 51 77 15 134 31
146 41 7 6 43 15 81 20 95 13 123 19 123 29 0 9 -95 3 -170 -11 -30 -5 -84
-14 -120 -18 -36 -5 -93 -21 -127 -35 -101 -43 -116 -43 -143 -4 -25 34 -68
77 -117 115 -28 21 -28 22 -29 140 0 153 -29 446 -48 499 -8 23 -25 61 -37 84
-12 23 -26 58 -30 78 -42 199 -77 266 -144 274 -28 3 -30 6 -27 38 2 19 10 60
19 90 30 114 98 413 109 480 3 25 8 52 9 60 4 18 32 155 45 220 5 25 17 114
26 198 15 134 16 170 5 279 -7 69 -19 160 -26 202 -8 42 -11 78 -8 81 2 3 414
6 914 8 899 2 909 3 909 22 0 20 -13 20 -2490 20 -2483 0 -2490 0 -2490 -20z
m2134 -65 c-1 -16 -3 -46 -5 -65 -1 -19 0 -68 4 -108 4 -52 3 -71 -5 -66 -8 5
-9 1 -5 -9 12 -32 28 -192 28 -285 0 -51 4 -90 9 -87 5 3 12 -7 15 -22 3 -15
10 -45 16 -66 6 -21 7 -47 4 -57 -4 -11 -2 -20 3 -20 5 0 12 -47 15 -106 4
-58 11 -113 17 -123 5 -10 11 -40 13 -67 2 -27 6 -56 10 -64 21 -54 46 -179
64 -322 3 -21 10 -38 16 -38 18 0 47 -32 47 -53 0 -11 -8 -34 -19 -51 -31 -51
-34 -82 -11 -104 17 -16 19 -24 10 -46 -5 -15 -10 -44 -10 -65 0 -30 4 -40 19
-44 23 -6 61 18 61 39 0 8 4 14 9 14 9 0 51 91 51 111 0 7 10 26 23 43 13 17
29 46 36 63 16 39 55 83 74 83 21 0 46 -32 53 -68 4 -17 10 -30 14 -27 13 8
46 -95 41 -128 0 -5 -13 5 -27 22 -14 17 -34 31 -45 31 -10 0 -19 5 -19 10 0
6 -9 10 -19 10 -11 0 -22 8 -24 18 -3 12 -5 11 -6 -6 -1 -15 -13 -30 -35 -43
-23 -13 -43 -39 -62 -77 -15 -31 -31 -60 -36 -63 -6 -4 -27 -98 -28 -126 0 -1
-13 -15 -30 -31 -32 -33 -37 -48 -17 -55 9 -3 9 -7 1 -18 -7 -8 -15 -65 -19
-128 -3 -63 -11 -123 -16 -132 -12 -24 -11 -42 2 -33 8 4 9 -4 4 -27 -9 -42
-7 -39 -33 -32 -14 3 -22 13 -23 27 0 11 -3 16 -5 9 -3 -7 -12 -9 -21 -6 -11
4 -14 2 -9 -5 5 -8 2 -10 -8 -6 -13 5 -16 -1 -16 -30 0 -29 5 -38 29 -51 48
-24 50 -39 5 -31 -21 4 -48 9 -59 11 -11 2 -21 4 -22 5 -4 4 -21 7 -39 9 -14
1 -14 2 0 17 9 8 16 21 16 28 0 16 37 88 49 96 5 3 12 17 14 30 2 14 6 32 9
40 3 8 11 41 18 73 9 43 15 57 26 53 8 -3 14 1 14 9 0 8 -6 15 -12 16 -9 0 -9
2 1 6 11 5 11 7 0 14 -11 6 -11 11 -1 21 6 6 13 35 13 62 l2 51 8 -40 c7 -36
7 -34 5 17 -2 35 1 55 7 51 6 -3 7 -1 3 5 -12 19 -17 190 -6 197 6 4 4 16 -6
30 -9 14 -20 22 -25 19 -5 -3 -9 0 -9 5 0 6 4 11 9 11 6 0 3 12 -4 28 -8 15
-12 36 -9 47 4 14 2 16 -4 7 -6 -9 -12 -1 -20 26 -7 22 -12 46 -12 55 0 9 -4
26 -9 39 -5 13 -9 26 -10 30 -1 4 -12 19 -25 32 -22 25 -46 86 -46 120 0 9 -3
16 -7 16 -16 0 -32 53 -26 83 4 20 3 28 -4 24 -12 -8 -23 14 -23 45 0 11 -9
35 -20 53 -20 32 -53 176 -52 228 0 17 -5 27 -14 27 -19 0 -18 49 1 74 8 11
15 27 14 35 0 11 -2 12 -6 4 -7 -18 -23 -16 -23 2 0 8 -4 15 -10 15 -5 0 -10
12 -10 28 0 21 2 24 10 12 8 -12 10 -11 10 6 0 12 -9 32 -21 45 -19 21 -21 33
-17 107 3 46 1 85 -4 88 -4 3 -3 14 2 25 7 13 7 25 0 38 -7 13 -7 22 0 26 5 3
9 27 9 53 -1 26 -3 39 -6 30 -2 -10 -9 -18 -14 -18 -12 0 -12 47 1 55 6 3 10
11 10 16 0 6 -4 8 -9 4 -14 -8 -24 14 -14 28 5 7 8 44 6 82 -1 39 0 76 2 83 3
9 30 12 102 10 l98 -3 -1 -30z m171 -41 c14 -42 30 -98 35 -123 54 -296 63
-387 56 -563 -4 -84 -11 -175 -16 -203 -5 -27 -12 -66 -15 -86 -3 -21 -12 -42
-19 -48 -19 -16 -44 94 -72 324 -3 28 -8 66 -10 85 -35 276 -46 401 -49 533
l-4 157 33 0 c33 0 34 -2 61 -76z m516 64 c0 -10 2 -10 6 0 2 6 20 12 39 12
25 0 34 -4 35 -17 1 -17 2 -17 6 0 4 15 17 17 97 17 67 0 93 -3 94 -12 0 -7 6
-53 12 -103 6 -49 13 -110 16 -135 2 -25 6 -70 10 -100 3 -33 -1 -90 -10 -144
-9 -49 -16 -122 -16 -163 0 -43 -8 -103 -19 -141 -22 -80 -41 -178 -41 -215 0
-15 -4 -27 -9 -27 -5 0 -11 -21 -14 -47 -2 -27 -10 -75 -17 -108 -7 -33 -14
-69 -16 -80 -9 -45 -19 -48 -65 -20 -24 15 -45 29 -47 30 -2 2 6 22 17 46 14
29 18 46 11 54 -6 7 -8 20 -4 29 10 27 -25 19 -38 -9 -7 -17 -19 -25 -35 -25
-16 0 -42 -18 -75 -50 -28 -27 -56 -50 -64 -50 -8 0 -14 -6 -14 -12 -1 -9 -4
-8 -9 2 -14 24 -40 159 -45 230 -3 36 -10 87 -15 114 -6 27 -13 90 -15 140 -3
50 -12 108 -20 128 -18 42 -22 173 -6 183 14 8 13 52 -1 57 -9 3 -9 9 0 25 7
15 8 30 2 46 -13 33 -16 150 -7 212 5 28 9 59 11 70 1 11 8 32 15 48 l13 27
109 0 c79 0 108 -3 109 -12z m-365 -1133 c3 -14 4 -32 1 -40 -4 -8 -2 -17 4
-21 5 -3 9 -36 9 -72 -1 -37 3 -92 8 -122 12 -66 6 -82 -46 -140 -40 -44 -56
-42 -28 3 11 17 12 34 5 72 -21 116 -22 154 -6 222 9 37 19 80 22 96 7 34 23
35 31 2z m510 -252 c-3 -16 -11 -55 -17 -88 -6 -33 -19 -84 -30 -113 -24 -67
-24 -103 1 -132 11 -13 20 -29 20 -37 0 -7 9 -30 20 -50 14 -27 18 -47 13 -75
-4 -31 -2 -42 15 -56 17 -15 20 -31 22 -107 0 -50 3 -103 6 -120 3 -16 7 -76
10 -132 5 -106 4 -109 -34 -104 -8 1 -12 -5 -10 -15 1 -9 11 -18 21 -20 25 -3
57 -45 54 -69 -1 -11 -7 -19 -13 -18 -6 1 -9 -10 -6 -28 2 -16 -1 -36 -8 -44
-11 -14 -15 -14 -32 2 -17 15 -21 15 -28 3 -6 -8 -10 -21 -10 -28 0 -24 -25
-6 -35 26 -12 34 -28 31 -39 -5 -4 -13 -10 -22 -14 -21 -4 1 -20 -4 -37 -11
-27 -11 -29 -14 -12 -25 22 -17 22 -26 -3 -26 -14 0 -20 7 -20 24 0 13 -10 30
-22 38 -20 13 -21 18 -11 41 7 15 23 29 36 32 29 8 47 43 47 93 0 46 -30 302
-38 322 -3 8 -7 26 -8 40 -2 14 -8 65 -14 113 -11 80 -10 90 5 107 10 11 22
17 26 14 5 -3 9 8 9 25 0 20 8 36 25 49 21 17 24 27 21 58 -2 22 -11 57 -21
78 -21 50 -13 98 26 147 16 20 29 42 29 48 0 6 7 29 16 51 19 47 50 57 40 13z
m-300 -449 c8 -18 14 -50 14 -69 0 -20 4 -34 8 -31 5 3 9 0 9 -7 0 -39 16
-128 29 -167 10 -29 15 -78 14 -140 -1 -52 1 -114 4 -137 5 -40 4 -43 -19 -43
-17 0 -25 6 -26 18 0 10 -3 12 -6 5 -7 -18 -21 -16 -26 5 -4 13 -5 12 -6 -4
-1 -17 -7 -22 -25 -20 -13 0 -22 4 -19 8 2 5 -7 13 -21 20 -15 6 -26 19 -26
31 0 24 -13 14 -17 -13 -1 -11 7 -26 19 -34 22 -16 22 -16 3 -30 -11 -8 -36
-18 -55 -21 -28 -6 -38 -3 -53 16 -15 19 -17 32 -11 64 4 22 7 54 7 70 0 17 4
53 8 80 5 28 11 77 14 110 7 79 33 165 72 238 8 16 18 41 22 55 5 16 17 29 32
33 31 8 38 3 55 -37z m450 -219 c3 -19 10 -35 14 -35 10 0 25 -76 21 -105 -2
-17 0 -17 8 -5 9 12 11 11 11 -7 0 -13 -4 -23 -10 -23 -5 0 -10 -17 -9 -37 0
-30 2 -34 9 -18 7 19 8 18 13 -5 4 -14 8 -58 9 -97 3 -55 0 -73 -9 -73 -7 0
-13 10 -13 23 0 13 -3 27 -7 31 -5 4 -8 11 -9 14 0 4 -3 14 -7 22 -3 8 -9 51
-13 95 -10 94 -9 90 -17 135 -12 70 -15 120 -7 120 5 0 12 -16 16 -35z m-421
-435 l26 -10 -36 -67 c-58 -109 -88 -122 -171 -76 l-48 27 35 13 c65 25 84 38
101 73 15 30 36 47 60 49 4 1 19 -3 33 -9z m591 -273 c42 -24 93 -76 100 -101
6 -24 2 -28 -47 -48 -30 -12 -106 -48 -169 -80 -71 -35 -118 -54 -124 -48 -6
6 -2 27 9 57 10 26 19 58 21 71 3 29 23 51 76 88 22 16 44 38 49 51 10 26 49
31 85 10z m160 -204 c33 -77 56 -158 46 -168 -3 -3 -74 -5 -158 -5 -125 0
-155 3 -168 16 -23 22 -20 67 7 91 33 31 187 101 224 102 28 1 34 -4 49 -36z
m-896 -1002 c90 -6 95 -7 98 -29 2 -13 -3 -46 -12 -75 -47 -161 -55 -192 -50
-196 3 -3 8 -1 12 5 4 6 15 13 25 17 27 10 46 -40 87 -218 19 -84 26 -149 35
-326 6 -105 6 -106 -17 -113 -30 -8 -422 -8 -479 0 l-44 6 3 42 c2 22 12 49
21 60 9 10 15 20 13 22 -5 6 17 106 38 179 17 60 20 99 7 111 -13 13 5 25 19
13 12 -9 14 -6 15 22 1 19 1 38 0 43 -1 5 4 13 11 18 9 7 10 11 2 14 -14 6 -7
82 10 103 6 8 11 64 11 141 0 100 3 126 13 122 10 -3 11 2 7 21 -6 23 -4 26
27 29 18 2 37 1 43 -1 5 -3 52 -7 105 -10z m-802 -908 l3 -23 -218 1 c-224 0
-233 3 -118 34 32 8 100 13 190 12 137 -2 140 -2 143 -24z"/>
<path d="M2568 2017 c6 -7 34 -24 62 -37 34 -16 49 -28 45 -38 -3 -7 -5 -18
-5 -23 0 -13 -55 -39 -83 -39 -14 0 -41 7 -62 16 -40 16 -195 53 -260 61 -52
7 -38 -8 17 -18 88 -16 253 -69 265 -86 11 -15 5 -21 -55 -55 -37 -21 -58 -38
-48 -38 11 0 48 16 83 35 73 40 109 44 146 15 14 -11 30 -20 36 -20 20 0 11
16 -19 33 -16 10 -30 24 -30 31 0 22 45 56 73 56 25 0 27 3 20 28 -3 15 -6 35
-5 45 1 14 -4 17 -16 12 -38 -15 -56 -13 -103 10 -55 28 -78 33 -61 12z"/>
<path d="M2705 1554 c-52 -13 -173 -67 -200 -89 -29 -23 -29 -24 -7 -25 13 0
42 10 65 23 108 59 173 68 361 48 60 -6 111 -9 113 -7 3 2 -7 12 -20 21 -16
10 -51 17 -94 19 -37 1 -97 5 -133 9 -36 3 -74 4 -85 1z"/>
<path d="M2748 1442 c-89 -20 -101 -28 -64 -41 32 -13 32 -16 1 -53 -29 -34
-32 -48 -10 -48 8 0 31 22 50 49 63 87 169 107 187 36 4 -17 10 -43 13 -59 5
-25 8 -27 20 -15 17 17 27 109 15 129 -13 21 -121 22 -212 2z"/>
<path d="M175 756 c2 -31 -1 -40 -17 -44 -21 -5 -17 -38 7 -58 17 -13 85 -6
86 10 1 6 5 -7 9 -29 l7 -40 8 33 c10 41 25 42 25 1 0 -25 2 -28 13 -17 17 16
28 58 16 58 -4 0 -6 7 -3 15 4 10 0 15 -14 15 -12 0 -23 9 -27 23 l-8 22 -4
-22 c-6 -32 -23 -29 -23 3 0 24 -3 26 -32 21 -18 -3 -27 -3 -20 0 17 7 15 24
-2 17 -8 -3 -16 2 -19 13 -3 10 -4 1 -2 -21z"/>
</g>
</svg>
